HIERARCHY
ROOT hips
{
	OFFSET 0.000000 104.274902 0.000000
	CHANNELS 6 Xposition Yposition Zposition Xrotation Yrotation Zrotation
	JOINT spine
	{
		OFFSET 0.000000 10.181549 0.131524
		CHANNELS 6 Xposition Yposition Zposition Xrotation Yrotation Zrotation
		JOINT chest
		{
			OFFSET 0.000000 9.893990 -1.470706
			CHANNELS 3 Xrotation Yrotation Zrotation
			JOINT upperChest
			{
				OFFSET 0.000000 9.220787 -1.370637
				CHANNELS 3 Xrotation Yrotation Zrotation
				JOINT neck
				{
					OFFSET 0.000000 16.740372 -2.049022
					CHANNELS 6 Xposition Yposition Zposition Xrotation Yrotation Zrotation
					JOINT head
					{
						OFFSET 0.000000 9.617859 1.684976
						CHANNELS 6 Xposition Yposition Zposition Xrotation Yrotation Zrotation
						JOINT headEnd
						{
							OFFSET 0.000000 22.037384 7.501072
							CHANNELS 6 Xposition Yposition Zposition Xrotation Yrotation Zrotation
							End Site
							{
								OFFSET 0.000000 23.106567 -2.828246
							}
						}
					}
				}
				JOINT rightShoulder
				{
					OFFSET -4.570000 11.014877 -2.160840
					CHANNELS 6 Xposition Yposition Zposition Xrotation Yrotation Zrotation
					JOINT rightUpperArm
					{
						OFFSET -10.592867 -0.524796 -2.232105
						CHANNELS 3 Xrotation Yrotation Zrotation
						JOINT rightLowerArm
						{
							OFFSET -27.841497 0.000000 -0.000002
							CHANNELS 3 Xrotation Yrotation Zrotation
							JOINT rightHand
							{
								OFFSET -28.328812 0.000000 -0.000001
								CHANNELS 3 Xrotation Yrotation Zrotation
								JOINT rightThumbProximal
								{
									OFFSET -2.464798 -1.573990 2.681911
									CHANNELS 6 Xposition Yposition Zposition Xrotation Yrotation Zrotation
									JOINT rightThumbIntermediate
									{
										OFFSET -3.244781 -1.873383 1.873376
										CHANNELS 3 Xrotation Yrotation Zrotation
										JOINT rightThumbDistal
										{
											OFFSET -2.646263 -1.527817 1.527818
											CHANNELS 6 Xposition Yposition Zposition Xrotation Yrotation Zrotation
											JOINT rightHandThumb4
											{
												OFFSET -1.994591 -1.151581 1.151575
												CHANNELS 6 Xposition Yposition Zposition Xrotation Yrotation Zrotation
												End Site
												{
													OFFSET -1.860176 -1.142715 1.365483
												}
											}
										}
									}
								}
								JOINT rightIndexProximal
								{
									OFFSET -9.108299 -0.517883 2.259803
									CHANNELS 6 Xposition Yposition Zposition Xrotation Yrotation Zrotation
									JOINT rightIndexIntermediate
									{
										OFFSET -3.699997 0.000000 0.000000
										CHANNELS 3 Xrotation Yrotation Zrotation
										JOINT rightIndexDistal
										{
											OFFSET -2.850006 0.000000 0.000000
											CHANNELS 3 Xrotation Yrotation Zrotation
											JOINT rightHandIndex4
											{
												OFFSET -2.772194 0.000000 0.000000
												CHANNELS 3 Xrotation Yrotation Zrotation
												End Site
												{
													OFFSET -2.772202 0.000000 -0.000484
												}
											}
										}
									}
								}
								JOINT rightMiddleProximal
								{
									OFFSET -9.532501 0.000000 -0.000000
									CHANNELS 6 Xposition Yposition Zposition Xrotation Yrotation Zrotation
									JOINT rightMiddleIntermediate
									{
										OFFSET -3.699997 0.000000 0.000000
										CHANNELS 3 Xrotation Yrotation Zrotation
										JOINT rightMiddleDistal
										{
											OFFSET -2.949997 0.000000 0.000000
											CHANNELS 3 Xrotation Yrotation Zrotation
											JOINT rightHandMiddle4
											{
												OFFSET -2.946594 0.000000 0.000000
												CHANNELS 3 Xrotation Yrotation Zrotation
												End Site
												{
													OFFSET -2.946602 0.000000 -0.000982
												}
											}
										}
									}
								}
								JOINT rightRingProximal
								{
									OFFSET -9.103600 -0.043106 -1.865100
									CHANNELS 6 Xposition Yposition Zposition Xrotation Yrotation Zrotation
									JOINT rightRingIntermediate
									{
										OFFSET -3.379303 0.000000 0.000000
										CHANNELS 3 Xrotation Yrotation Zrotation
										JOINT rightRingDistal
										{
											OFFSET -2.889694 0.000000 0.000000
											CHANNELS 3 Xrotation Yrotation Zrotation
											JOINT rightHandRing4
											{
												OFFSET -2.638802 0.000000 0.000000
												CHANNELS 3 Xrotation Yrotation Zrotation
												End Site
												{
													OFFSET -2.638802 0.000000 0.004218
												}
											}
										}
									}
								}
								JOINT rightLittleProximal
								{
									OFFSET -8.076698 -0.486725 -3.806299
									CHANNELS 6 Xposition Yposition Zposition Xrotation Yrotation Zrotation
									JOINT rightLittleIntermediate
									{
										OFFSET -3.600006 0.000000 0.000000
										CHANNELS 3 Xrotation Yrotation Zrotation
										JOINT rightLittleDistal
										{
											OFFSET -2.099998 0.000000 0.000000
											CHANNELS 3 Xrotation Yrotation Zrotation
											JOINT rightHandPinky4
											{
												OFFSET -2.115791 0.000000 0.000000
												CHANNELS 3 Xrotation Yrotation Zrotation
												End Site
												{
													OFFSET -2.115799 0.000000 0.000174
												}
											}
										}
									}
								}
							}
						}
					}
				}
				JOINT leftShoulder
				{
					OFFSET 4.570400 11.014679 -2.160816
					CHANNELS 6 Xposition Yposition Zposition Xrotation Yrotation Zrotation
					JOINT leftUpperArm
					{
						OFFSET 10.592373 -0.524597 -2.232116
						CHANNELS 3 Xrotation Yrotation Zrotation
						JOINT leftLowerArm
						{
							OFFSET 27.841488 0.000000 0.000001
							CHANNELS 3 Xrotation Yrotation Zrotation
							JOINT leftHand
							{
								OFFSET 28.328808 0.000000 -0.000000
								CHANNELS 3 Xrotation Yrotation Zrotation
								JOINT leftThumbProximal
								{
									OFFSET 2.466103 -1.576202 2.681698
									CHANNELS 6 Xposition Yposition Zposition Xrotation Yrotation Zrotation
									JOINT leftThumbIntermediate
									{
										OFFSET 3.243317 -1.872528 1.872530
										CHANNELS 3 Xrotation Yrotation Zrotation
										JOINT leftThumbDistal
										{
											OFFSET 2.647881 -1.528763 1.528754
											CHANNELS 6 Xposition Yposition Zposition Xrotation Yrotation Zrotation
											JOINT leftHandThumb4
											{
												OFFSET 1.998924 -1.154083 1.154080
												CHANNELS 6 Xposition Yposition Zposition Xrotation Yrotation Zrotation
												End Site
												{
													OFFSET 1.884041 -1.149155 1.337651
												}
											}
										}
									}
								}
								JOINT leftIndexProximal
								{
									OFFSET 9.109299 -0.518005 2.259900
									CHANNELS 6 Xposition Yposition Zposition Xrotation Yrotation Zrotation
									JOINT leftIndexIntermediate
									{
										OFFSET 3.699997 0.000000 0.000000
										CHANNELS 3 Xrotation Yrotation Zrotation
										JOINT leftIndexDistal
										{
											OFFSET 2.850006 0.000000 0.000000
											CHANNELS 3 Xrotation Yrotation Zrotation
											JOINT leftHandIndex4
											{
												OFFSET 2.774895 0.000000 0.000000
												CHANNELS 3 Xrotation Yrotation Zrotation
												End Site
												{
													OFFSET 2.774902 0.000000 -0.000072
												}
											}
										}
									}
								}
								JOINT leftMiddleProximal
								{
									OFFSET 9.533401 0.000000 0.000000
									CHANNELS 6 Xposition Yposition Zposition Xrotation Yrotation Zrotation
									JOINT leftMiddleIntermediate
									{
										OFFSET 3.699997 0.000000 0.000000
										CHANNELS 3 Xrotation Yrotation Zrotation
										JOINT leftMiddleDistal
										{
											OFFSET 2.949997 0.000000 0.000000
											CHANNELS 3 Xrotation Yrotation Zrotation
											JOINT leftHandMiddle4
											{
												OFFSET 2.952896 0.000000 0.000000
												CHANNELS 3 Xrotation Yrotation Zrotation
												End Site
												{
													OFFSET 2.952904 0.000000 0.000165
												}
											}
										}
									}
								}
								JOINT leftRingProximal
								{
									OFFSET 9.104500 -0.042999 -1.865101
									CHANNELS 6 Xposition Yposition Zposition Xrotation Yrotation Zrotation
									JOINT leftRingIntermediate
									{
										OFFSET 3.149994 0.000000 0.000000
										CHANNELS 3 Xrotation Yrotation Zrotation
										JOINT leftRingDistal
										{
											OFFSET 2.950005 0.000000 0.000000
											CHANNELS 3 Xrotation Yrotation Zrotation
											JOINT leftHandRing4
											{
												OFFSET 2.644302 0.000000 0.000000
												CHANNELS 3 Xrotation Yrotation Zrotation
												End Site
												{
													OFFSET 2.644302 0.000000 0.000083
												}
											}
										}
									}
								}
								JOINT leftLittleProximal
								{
									OFFSET 8.077805 -0.486893 -3.806302
									CHANNELS 6 Xposition Yposition Zposition Xrotation Yrotation Zrotation
									JOINT leftLittleIntermediate
									{
										OFFSET 3.600006 0.000000 0.000000
										CHANNELS 3 Xrotation Yrotation Zrotation
										JOINT leftLittleDistal
										{
											OFFSET 2.099998 0.000000 0.000000
											CHANNELS 3 Xrotation Yrotation Zrotation
											JOINT leftHandPinky4
											{
												OFFSET 2.125496 0.000000 0.000000
												CHANNELS 3 Xrotation Yrotation Zrotation
												End Site
												{
													OFFSET 2.125504 0.000000 -0.001254
												}
											}
										}
									}
								}
							}
						}
					}
				}
			}
		}
	}
	JOINT rightUpperLeg
	{
		OFFSET -8.207800 -6.751701 -1.599544
		CHANNELS 6 Xposition Yposition Zposition Xrotation Yrotation Zrotation
		JOINT rightLowerLeg
		{
			OFFSET 0.000004 -44.370152 0.345934
			CHANNELS 3 Xrotation Yrotation Zrotation
			JOINT rightFoot
			{
				OFFSET 0.000004 -44.423664 -3.043535
				CHANNELS 3 Xrotation Yrotation Zrotation
				JOINT rightToes
				{
					OFFSET 0.000001 -8.728691 10.710592
					CHANNELS 3 Xrotation Yrotation Zrotation
					JOINT rightToesEnd
					{
						OFFSET 0.000000 -0.000665 9.278101
						CHANNELS 3 Xrotation Yrotation Zrotation
						End Site
						{
							OFFSET 0.000000 -0.000665 9.278103
						}
					}
				}
			}
		}
	}
	JOINT leftUpperLeg
	{
		OFFSET 8.207800 -6.751701 -1.599544
		CHANNELS 6 Xposition Yposition Zposition Xrotation Yrotation Zrotation
		JOINT leftLowerLeg
		{
			OFFSET 0.000004 -44.370037 0.346940
			CHANNELS 3 Xrotation Yrotation Zrotation
			JOINT leftFoot
			{
				OFFSET 0.000004 -44.423611 -3.044388
				CHANNELS 3 Xrotation Yrotation Zrotation
				JOINT leftToes
				{
					OFFSET 0.000001 -8.728690 10.710592
					CHANNELS 3 Xrotation Yrotation Zrotation
					JOINT leftToesEnd
					{
						OFFSET 0.000000 -0.000680 9.278101
						CHANNELS 3 Xrotation Yrotation Zrotation
						End Site
						{
							OFFSET 0.000000 -0.000680 9.278101
						}
					}
				}
			}
		}
	}
}
MOTION
Frames: 4
Frame Time: 0.033333
3.903663 102.906052 5.019246 -0.783516 -9.095585 -0.004019 0.000000 10.181552 0.131524 1.288515 -0.366917 0.002579 -5.236919 -0.703327 -0.112874 -5.239773 -0.691520 -0.076308 0.000000 16.740364 -2.049022 4.946856 0.146058 -0.771452 -0.000000 9.617862 1.684973 -6.338074 -0.183652 1.139248 0.000000 22.037354 7.501069 -0.000000 -0.000001 -0.000000 -4.570000 11.014880 -2.160842 0.437430 1.320590 8.179873 14.330377 1.292158 72.297136 -0.000011 27.163922 0.000023 16.937348 1.336857 -0.619141 -2.464782 -1.573988 2.681905 -2.372512 -8.872930 -14.680126 5.304908 -25.259686 -3.831723 -2.646275 -1.527797 1.527820 0.115672 1.662808 1.856181 -1.994602 -1.151581 1.151577 0.000003 -0.000005 0.000001 -9.108295 -0.517869 2.259801 1.005813 -3.677011 25.763335 0.198000 -1.650659 13.678023 0.651452 -2.943373 24.955143 0.000001 -0.000000 0.000003 -9.532502 0.000010 -0.000005 -0.298240 -0.241399 18.583434 0.480748 -2.545000 21.390477 -0.155367 -5.201074 36.032929 0.000001 0.000001 0.000004 -9.103588 -0.043094 -1.865106 0.148050 -1.923739 26.242746 0.281849 -1.963345 16.337312 -10.079964 -7.854697 24.047098 0.000002 0.000001 0.000004 -8.076697 -0.486734 -3.806304 0.273390 -2.005281 21.011146 0.437139 -2.430872 20.386269 0.816572 -3.274357 27.998547 0.000001 0.000000 0.000002 4.570402 11.014689 -2.160816 0.613753 -2.353596 -9.141821 13.481788 9.374806 -74.876372 -0.000011 -21.527225 -0.000004 16.727746 -7.776707 -3.009461 2.466085 -1.576216 2.681697 -2.422387 14.222186 14.450030 5.669997 10.710998 0.837561 2.647890 -1.528754 1.528745 -9.080852 11.612878 3.893996 1.998921 -1.154094 1.154067 0.000001 -0.000004 -0.000002 9.109281 -0.518011 2.259898 -0.172566 0.569059 -18.148065 0.513246 2.613178 -22.221245 0.940095 3.478267 -30.242008 -0.000000 0.000001 0.000000 9.533394 0.000010 -0.000004 -0.133935 0.132492 -12.379189 0.547774 2.696055 -22.966752 0.869733 3.354873 -29.061246 -0.000001 0.000000 0.000002 9.104490 -0.042994 -1.865103 0.273247 1.954773 -19.274951 0.473063 2.512700 -21.323010 1.092323 3.726641 -32.664102 -0.000001 -0.000004 0.000002 8.077796 -0.486877 -3.806305 1.458602 5.269418 -19.527834 0.623356 -1.206641 -24.856161 0.792439 3.212071 -27.711674 -0.000002 -0.000002 0.000001 -8.207801 -6.751692 -1.599542 -5.266910 -7.103602 -2.094960 15.323118 -0.403094 -1.332766 -9.485063 3.163772 2.603484 -0.367604 -0.000001 -0.000001 0.000000 -0.000000 0.000000 8.207799 -6.751689 -1.599544 -4.840371 4.395436 -2.062883 14.869066 9.957430 -1.433649 -10.516317 9.050136 2.276809 1.613520 0.000005 0.000243 -0.000000 0.000000 0.000000 
4.218546 102.933281 5.095095 -0.792587 -9.354022 0.005115 0.000000 10.181556 0.131525 1.383236 -0.374459 0.043146 -5.261711 -0.737797 -0.081944 -5.263932 -0.726727 -0.044123 0.000001 16.740376 -2.049027 4.899620 0.146783 -0.927506 -0.000000 9.617877 1.684978 -6.374144 -0.191982 1.138475 0.000001 22.037354 7.501073 0.000001 -0.000001 -0.000000 -4.569999 11.014874 -2.160846 0.432195 1.391900 8.139096 14.157924 1.607650 72.317326 -0.000014 27.150997 0.000027 16.864169 1.281087 -0.733652 -2.464788 -1.574008 2.681910 -2.372441 -8.875806 -14.680219 5.307130 -25.267615 -3.831325 -2.646269 -1.527819 1.527815 0.122946 1.647258 1.854734 -1.994609 -1.151589 1.151576 0.000001 0.000000 0.000001 -9.108306 -0.517872 2.259802 1.006184 -3.677435 25.775370 0.198298 -1.651917 13.688643 0.653004 -2.946724 24.985592 0.000001 0.000000 0.000002 -9.532492 -0.000001 -0.000000 -0.300130 -0.237574 18.599537 0.481866 -2.547849 21.415679 -0.146244 -5.200794 36.066810 -0.000001 0.000001 0.000003 -9.103583 -0.043111 -1.865100 0.146602 -1.921817 26.262926 0.282398 -1.965271 16.353732 -10.077163 -7.859741 24.064406 0.000001 0.000000 -0.000000 -8.076677 -0.486734 -3.806298 0.272808 -2.004285 21.030282 0.437971 -2.433029 20.405289 0.817598 -3.276313 28.016864 0.000001 0.000000 0.000001 4.570400 11.014710 -2.160819 0.613546 -2.442682 -9.148868 13.389880 9.237681 -74.667888 0.000007 -21.504306 0.000021 16.766269 -7.701212 -2.924859 2.466083 -1.576226 2.681699 -2.422207 14.223130 14.448516 5.669874 10.713597 0.836952 2.647880 -1.528750 1.528749 -9.078717 11.611262 3.886291 1.998932 -1.154097 1.154082 -0.000000 0.000000 0.000003 9.109282 -0.518017 2.259899 -0.172617 0.567967 -18.138952 0.512724 2.611890 -22.209730 0.938991 3.476386 -30.223956 0.000001 0.000003 0.000000 9.533399 0.000008 0.000001 -0.133856 0.131663 -12.369433 0.547248 2.694845 -22.955941 0.868849 3.353320 -29.046383 -0.000000 -0.000000 -0.000002 9.104495 -0.043014 -1.865101 0.272707 1.952959 -19.264159 0.472811 2.512012 -21.316884 1.091687 3.725664 -32.654649 0.000000 0.000001 -0.000000 8.077798 -0.486895 -3.806304 1.458056 5.269230 -19.519313 0.622686 -1.208106 -24.842798 0.791245 3.209797 -27.690386 0.000000 0.000004 -0.000000 -8.207801 -6.751721 -1.599543 -5.152977 -6.764338 -2.076756 15.045529 -0.613370 -1.704147 -9.328344 3.132159 3.019581 -0.407876 0.000012 -0.000000 -0.000000 0.000000 0.000000 8.207798 -6.751699 -1.599542 -4.585295 4.232946 -2.395146 14.422416 9.906238 -1.334687 -10.402820 9.497003 2.510470 1.578119 0.000001 0.000202 -0.000000 -0.000001 0.000000 
4.514463 102.941589 5.145853 -0.772479 -9.644418 0.021842 -0.000000 10.181536 0.131523 1.455055 -0.372843 0.027135 -5.276361 -0.753330 -0.055577 -5.278068 -0.742735 -0.017306 0.000001 16.740368 -2.049019 4.864853 0.150737 -1.010371 0.000000 9.617873 1.684978 -6.432873 -0.170866 1.140797 0.000000 22.037415 7.501076 -0.000001 0.000000 -0.000000 -4.570000 11.014874 -2.160839 0.434640 1.487308 8.198730 13.934569 1.892731 72.225692 -0.000021 27.114536 0.000035 16.982038 1.275259 -0.644615 -2.464788 -1.573988 2.681909 -2.372243 -8.877803 -14.680208 5.309162 -25.274845 -3.830968 -2.646274 -1.527803 1.527822 0.129589 1.633141 1.853310 -1.994597 -1.151573 1.151580 0.000002 -0.000003 -0.000000 -9.108305 -0.517878 2.259804 1.006523 -3.677802 25.786322 0.198570 -1.653056 13.698302 0.654446 -2.949785 25.013264 0.000000 0.000001 0.000002 -9.532490 -0.000009 0.000000 -0.301843 -0.234112 18.614175 0.482885 -2.550439 21.438593 -0.137918 -5.200508 36.097632 -0.000000 0.000001 -0.000001 -9.103595 -0.043109 -1.865100 0.145248 -1.920015 26.281284 0.282922 -1.967006 16.368646 -10.074626 -7.864324 24.080148 0.000001 0.000001 0.000004 -8.076694 -0.486733 -3.806297 0.272436 -2.003777 21.047680 0.438701 -2.435009 20.422578 0.818554 -3.278109 28.033550 -0.000000 -0.000001 0.000002 4.570403 11.014697 -2.160813 0.612710 -2.528983 -9.174927 13.246197 9.042120 -74.404850 0.000008 -21.500034 0.000034 16.721089 -7.817292 -2.933422 2.466084 -1.576206 2.681697 -2.421905 14.225010 14.446422 5.669968 10.718916 0.836437 2.647896 -1.528729 1.528747 -9.075245 11.613469 3.874953 1.998943 -1.154095 1.154074 -0.000002 0.000000 0.000005 9.109277 -0.518010 2.259901 -0.172717 0.566670 -18.127952 0.512106 2.610341 -22.195847 0.937689 3.474133 -30.202188 -0.000000 0.000000 0.000001 9.533392 0.000010 -0.000001 -0.133611 0.131504 -12.357561 0.546650 2.693396 -22.942981 0.867819 3.351444 -29.028406 0.000002 0.000000 -0.000003 9.104488 -0.042999 -1.865101 0.272021 1.950811 -19.251098 0.472486 2.511181 -21.309439 1.090946 3.724523 -32.643205 0.000000 0.000002 -0.000000 8.077789 -0.486883 -3.806300 1.457393 5.269032 -19.508979 0.621852 -1.209891 -24.826693 0.789807 3.207071 -27.664720 0.000001 -0.000003 -0.000000 -8.207800 -6.751709 -1.599543 -5.150041 -6.360048 -2.042312 14.902966 -0.775586 -2.102214 -9.225781 3.101708 3.430571 -0.420124 -0.000003 0.000001 -0.000000 -0.000000 0.000000 8.207799 -6.751701 -1.599545 -4.438680 4.145740 -2.665422 14.114582 9.848257 -1.307114 -10.324419 9.899372 2.751252 1.496742 -0.000002 0.000151 -0.000000 0.000000 0.000000 
4.789022 102.925911 5.175949 -0.689706 -9.922573 0.067551 0.000001 10.181561 0.131525 1.487142 -0.376745 -0.045635 -5.314068 -0.777455 -0.038302 -5.315352 -0.767270 0.000931 0.000000 16.740385 -2.049023 4.857882 0.156544 -1.026952 0.000001 9.617829 1.684979 -6.466314 -0.136469 1.125921 0.000001 22.037338 7.501072 0.000001 -0.000000 -0.000000 -4.570000 11.014871 -2.160844 0.436405 1.603620 8.255377 13.702299 2.157892 72.161290 -0.000010 27.065306 0.000038 17.061372 1.206202 -0.571430 -2.464790 -1.574003 2.681906 -2.372037 -8.879337 -14.680117 5.310992 -25.281341 -3.830607 -2.646275 -1.527809 1.527818 0.135765 1.620497 1.851976 -1.994594 -1.151587 1.151583 -0.000001 0.000000 0.000001 -9.108300 -0.517876 2.259799 1.006822 -3.678139 25.796161 0.198809 -1.654081 13.706964 0.655739 -2.952531 25.038107 0.000002 0.000002 0.000002 -9.532495 0.000007 -0.000007 -0.303360 -0.231029 18.627326 0.483793 -2.552776 21.459175 -0.130478 -5.200265 36.125318 0.000003 -0.000002 0.000001 -9.103606 -0.043110 -1.865110 0.143973 -1.918258 26.297769 0.283386 -1.968580 16.382074 -10.072349 -7.868427 24.094268 0.000001 0.000001 0.000006 -8.076683 -0.486730 -3.806304 0.272370 -2.003975 21.063212 0.439352 -2.436775 20.438093 0.819411 -3.279709 28.048520 0.000001 0.000000 -0.000000 4.570399 11.014687 -2.160819 0.609718 -2.588333 -9.136420 13.106363 8.831279 -74.247332 -0.000004 -21.464402 0.000004 16.766351 -7.844062 -2.861476 2.466090 -1.576233 2.681695 -2.421375 14.228038 14.443675 5.670184 10.730104 0.836211 2.647888 -1.528771 1.528749 -9.071230 11.618814 3.860855 1.998929 -1.154104 1.154088 0.000001 0.000002 0.000001 9.109278 -0.518013 2.259900 -0.172801 0.565176 -18.115106 0.511352 2.608537 -22.179644 0.936144 3.471493 -30.176793 -0.000001 0.000000 -0.000004 9.533390 0.000008 0.000000 -0.133272 0.131475 -12.343690 0.545939 2.691730 -22.927782 0.866585 3.349234 -29.007458 0.000000 0.000004 0.000000 9.104485 -0.042994 -1.865101 0.271247 1.948295 -19.235882 0.472108 2.510203 -21.300736 1.090096 3.723175 -32.629856 0.000000 -0.000002 0.000000 8.077791 -0.486897 -3.806302 1.456966 5.269825 -19.496852 0.620913 -1.211934 -24.807855 0.788133 3.203870 -27.634749 -0.000002 -0.000001 0.000002 -8.207799 -6.751705 -1.599543 -5.324734 -5.982720 -2.052793 14.959967 -0.944972 -2.442773 -9.206992 3.077485 3.797671 -0.415644 -0.000008 0.000001 0.000000 0.000000 0.000000 8.207801 -6.751690 -1.599544 -4.450132 4.063019 -2.922668 13.962379 9.776214 -1.290120 -10.263017 10.277747 2.964847 1.334281 -0.000003 0.000110 -0.000000 0.000001 0.000000 
